<svg xmlns="http://www.w3.org/2000/svg" viewBox="0 0 1200 800" preserveAspectRatio="xMidYMid slice">
  <defs>
    <radialGradient id="space" cx="50%" cy="50%" r="50%">
      <stop offset="0%" style="stop-color:#1a1a2e"/>
      <stop offset="100%" style="stop-color:#000000"/>
    </radialGradient>
    <linearGradient id="platform" x1="0%" y1="0%" x2="0%" y2="100%">
      <stop offset="0%" style="stop-color:#4a0080"/>
      <stop offset="100%" style="stop-color:#2d0050"/>
    </linearGradient>
    <linearGradient id="mars" x1="0%" y1="0%" x2="100%" y2="0%">
      <stop offset="0%" style="stop-color:#ff6b6b"/>
      <stop offset="50%" style="stop-color:#ee5a5a"/>
      <stop offset="100%" style="stop-color:#ff6b6b"/>
    </linearGradient>
    <linearGradient id="earth" x1="0%" y1="0%" x2="0%" y2="100%">
      <stop offset="0%" style="stop-color:#3498db"/>
      <stop offset="50%" style="stop-color:#2980b9"/>
      <stop offset="100%" style="stop-color:#1a5276"/>
    </linearGradient>
  </defs>
  <rect width="1200" height="800" fill="url(#space)"/>
  <g fill="white">
    <circle cx="100" cy="100" r="1" opacity="0.8"/>
    <circle cx="250" cy="50" r="1.5" opacity="0.6"/>
    <circle cx="400" cy="150" r="1" opacity="0.9"/>
    <circle cx="600" cy="80" r="2" opacity="0.7"/>
    <circle cx="800" cy="200" r="1" opacity="0.8"/>
    <circle cx="1000" cy="60" r="1.5" opacity="0.5"/>
    <circle cx="1100" cy="180" r="1" opacity="0.9"/>
    <circle cx="50" cy="300" r="1" opacity="0.6"/>
    <circle cx="300" cy="350" r="1.5" opacity="0.8"/>
    <circle cx="700" cy="320" r="1" opacity="0.7"/>
    <circle cx="950" cy="280" r="2" opacity="0.6"/>
    <circle cx="150" cy="450" r="1" opacity="0.9"/>
    <circle cx="500" cy="400" r="1.5" opacity="0.5"/>
    <circle cx="850" cy="450" r="1" opacity="0.8"/>
    <circle cx="1150" cy="420" r="1" opacity="0.7"/>
  </g>
  <ellipse cx="200" cy="250" rx="300" ry="200" fill="#800080" opacity="0.1"/>
  <ellipse cx="900" cy="300" rx="250" ry="150" fill="#4a0080" opacity="0.15"/>
  <ellipse cx="600" cy="500" rx="400" ry="100" fill="#0080ff" opacity="0.05"/>
  <circle cx="900" cy="200" r="150" fill="url(#mars)"/>
  <ellipse cx="900" cy="200" rx="150" ry="20" fill="#c0392b" opacity="0.2"/>
  <circle cx="200" cy="500" r="100" fill="url(#earth)" opacity="0.8"/>
  <g fill="#27ae60" opacity="0.6">
    <circle cx="150" cy="480" r="30"/>
    <circle cx="250" cy="520" r="25"/>
    <circle cx="180" cy="550" r="20"/>
  </g>
  <ellipse cx="600" cy="400" rx="500" ry="100" fill="none" stroke="#3498db" stroke-width="2" opacity="0.3"/>
  <ellipse cx="600" cy="400" rx="550" ry="120" fill="none" stroke="#2980b9" stroke-width="1" opacity="0.2"/>
  <ellipse cx="600" cy="400" rx="600" ry="140" fill="none" stroke="#5dade2" stroke-width="1" opacity="0.15"/>
  <rect x="480" y="520" width="240" height="30" fill="url(#platform)" stroke="#9b59b6" stroke-width="2"/>
  <rect x="500" y="500" width="200" height="20" fill="#5b2d8a"/>
  <line x1="480" y1="535" x2="720" y2="535" stroke="#9b59b6" stroke-width="2"/>
  <g transform="translate(300, 150)">
    <path d="M0,0 L40,20 L0,40 L-40,20 Z" fill="#ecf0f1"/>
    <rect x="-2" y="40" width="4" height="100" fill="#bdc3c7"/>
    <rect x="-20" y="140" width="40" height="10" fill="#95a5a6"/>
  </g>
</svg>